<svg xmlns="http://www.w3.org/2000/svg" fill="none" viewBox="0 0 17 17">
  <g filter="url(#cmtI3Vsn0tKa)">
    <path d="M14.803 0H2.184A2.184 2.184 0 000 2.184v12.564c0 1.206.978 2.184 2.184 2.184h12.619a2.184 2.184 0 002.184-2.184V2.184A2.184 2.184 0 0014.803 0z" fill="#FE9921"/>
  </g>
  <path d="M2.184.196h12.619c1.097 0 1.988.89 1.988 1.988v12.564c0 1.098-.89 1.988-1.988 1.988H2.184a1.988 1.988 0 01-1.988-1.988V2.184c0-1.098.89-1.988 1.988-1.988z" stroke="#FFC681" stroke-width=".392"/>
  <defs>
    <filter id="cmtI3Vsn0tKa" x="0" y="0" width="16.987" height="18.501" filterUnits="userSpaceOnUse" color-interpolation-filters="sRGB">
      <feFlood flood-opacity="0" result="BackgroundImageFix"/>
      <feBlend in="SourceGraphic" in2="BackgroundImageFix" result="shape"/>
      <feColorMatrix in="SourceAlpha" values="0 0 0 0 0 0 0 0 0 0 0 0 0 0 0 0 0 0 127 0" result="hardAlpha"/>
      <feOffset dy="1.569"/>
      <feGaussianBlur stdDeviation="1.176"/>
      <feComposite in2="hardAlpha" operator="arithmetic" k2="-1" k3="1"/>
      <feColorMatrix values="0 0 0 0 1 0 0 0 0 1 0 0 0 0 1 0 0 0 0.5 0"/>
      <feBlend in2="shape" result="effect1_innerShadow_7144_272836"/>
    </filter>
  </defs>
</svg>
