<svg xmlns="http://www.w3.org/2000/svg" fill="none" viewBox="0 0 20 20">
  <path fill-rule="evenodd" clip-rule="evenodd" d="M5.36 12.511l4.89 3.353 4.89-3.353-4.89-3.353-4.89 3.353zm-2.639-.932a1.13 1.13 0 000 1.864l6.89 4.725a1.13 1.13 0 001.279 0l6.889-4.724a1.13 1.13 0 000-1.865l-6.89-4.724a1.13 1.13 0 00-1.278 0l-6.89 4.724z" fill="#40B1BA"/>
  <path fill-rule="evenodd" clip-rule="evenodd" d="M5.36 7.989l4.89 3.353 4.89-3.353-4.89-3.353-4.89 3.353zm-2.639-.933a1.13 1.13 0 000 1.865l6.89 4.724a1.13 1.13 0 001.279 0l6.889-4.724a1.13 1.13 0 000-1.864l-6.89-4.725a1.13 1.13 0 00-1.278 0L2.72 7.056z" fill="#39D2C4"/>
</svg>
