<svg xmlns="http://www.w3.org/2000/svg" fill="none" viewBox="0 0 28 28">
  <path d="M4.71 10.511c.057.17.1.397.1.706 0 .082-.018.751-.043 1.616-.025.91-.057 2.037-.079 2.928-.019.753-.338 1.289-.65 1.59v-.003c-.277.24-.611.419-.98.516.978 3.981 4.674 6.503 9.294 6.92a2.106 2.106 0 011.909-1.165c1.152 0 2.102.886 2.102 1.998 0 1.11-.95 1.996-2.103 1.996-.898 0-1.659-.536-1.96-1.293-5.492-.465-9.927-3.636-10.893-8.583C.58 17.368 0 16.562 0 15.618v-4.306c0-1.244 1.007-2.253 2.268-2.327v-.006h.086C3.64 3.826 8.36 0 14.007 0 19.82 0 24.655 4.051 25.77 9.43c1.05.23 1.843 1.146 1.843 2.251v4.259c0 1.28-1.058 2.31-2.36 2.31-.402 0-.78-.1-1.11-.277v.005c-.67-.405-1.136-1.129-1.184-2.375a48.664 48.664 0 01-.021-2.648c.002-.21.005-.39.005-.537-.026-.377 0-1.63.417-2.162v.003a.468.468 0 01.046-.053l.001-.002c.039-.038.095-.095.151-.143a.878.878 0 01.067-.054c-.853-4.448-4.828-7.818-9.618-7.818-4.78 0-8.75 3.355-9.614 7.79.027.032.059.07.094.118l.016.023a1.738 1.738 0 01.207.392z" fill="#025F53"/>
  <path d="M4.813 11.217c0-.31-.044-.537-.101-.706a1.728 1.728 0 00-.201-.384l-.006-.008-.016-.022a2.082 2.082 0 00-.094-.118l.004-.023c-.543-.7-1.565-.94-2.058-.977H2.27v.005C1.01 9.06.002 10.068.002 11.311v4.307c0 .943.58 1.75 1.407 2.118l.006.03c.467.263 1.257.189 1.648.107a.891.891 0 01-.002-.01c.368-.097.702-.275.979-.515v.003c.312-.302.632-.837.65-1.59.023-.891.054-2.018.08-2.928.024-.865.043-1.534.043-1.616zm22.827.326a2.16 2.16 0 00-.1-.7 1.697 1.697 0 00-.201-.38l-.006-.008a2.096 2.096 0 00-.11-.14 1.48 1.48 0 01.004-.022c-.543-.694-1.565-.932-2.059-.97h-.07v.006c-1.26.074-2.268 1.074-2.268 2.307v4.27c0 .935.58 1.734 1.407 2.1l.006.03c.467.26 1.257.186 1.648.105l-.002-.009c.368-.097.702-.273.979-.511v.002c.312-.298.632-.829.65-1.576.023-.883.054-2 .08-2.902.024-.858.043-1.521.043-1.602z" fill="#045248"/>
  <path fill-rule="evenodd" clip-rule="evenodd" d="M9.475 18.8c0 1.682 2.007 3.045 4.483 3.045 2.476 0 4.483-1.363 4.483-3.045s-2.007-.483-4.483-.483c-2.476 0-4.483-1.199-4.483.483z" fill="#8A6E70"/>
  <path fill-rule="evenodd" clip-rule="evenodd" d="M13.957 21.845c-1.195 0-2.279-.317-3.089-.833.223-.949 1.548-1.33 3.17-1.33 1.561 0 2.876.327 3.169 1.225-.824.578-1.974.938-3.25.938z" fill="#C96665"/>
  <path fill-rule="evenodd" clip-rule="evenodd" d="M12.646 16.164c0 .277.432.502.966.502s.966-.225.966-.502c0-.278-.432-.503-.966-.503s-.966.225-.966.503z" fill="#744C51"/>
  <path d="M25.775 18.193c-.17.038-.345.058-.526.058-.404 0-.781-.101-1.11-.278l-.001.005a2.334 2.334 0 01-.211-.144V9.942c0-.3.242-.541.54-.541h1.006c.213 0 .386.173.386.386v8.116c0 .107-.03.206-.084.29zM1.68 17.839c.237.068.49.103.754.103.404 0 .781-.102 1.11-.278l.001.005.055-.035a.55.55 0 00.002-.04V9.517a.541.541 0 00-.541-.541h-.85a.541.541 0 00-.542.54v8.232c0 .032.004.062.01.09z" fill="#097366"/>
  <path d="M23.616 10.012l.006-.005C22.77 5.56 18.795 2.19 14.005 2.19c-4.78 0-8.75 3.356-9.615 7.79l.027.033-.004.007c-.332-.332-1.032-1.031-2.06-1.043v-.005c.43-.07 1.297.008 1.75.16.31-1.083 1.005-3.066 2.628-4.56 1.799-1.657 4.02-3.209 7.73-3.093 4.002.125 6.362 2.551 7.107 3.318l.12.122c.762.761 2.126 2.86 2.358 4.367.07 0 .149-.002.235-.005.39-.013.927-.03 1.465.16-.696-.078-1.693.085-2.126.58l-.004-.008z" fill="#00352F"/>
  <path d="M12.337 24.783l.014.001a2.105 2.105 0 011.91-1.165c1.152 0 2.102.886 2.102 1.997 0 1.11-.951 1.996-2.104 1.996-.897 0-1.659-.535-1.96-1.293h-.003a2.485 2.485 0 01-.113-.764c.006-.278.08-.526.127-.677l.027-.095z" fill="#044941"/>
  <path d="M16.207 26.376c-.317.729-1.074 1.237-1.946 1.237-.898 0-1.66-.536-1.96-1.293-5.487-.464-9.918-3.63-10.89-8.567.614.302 1.352.202 1.649.113-.647.215-1.04.269-1.234.269l.025.095c.187.733.834 3.27 4.15 5.702 1.642 1.205 4.521 1.894 6.222 2.048a1.604 1.604 0 01-.039-.541 2.251 2.251 0 01.183-.683c.005-.008.008-.012.01-.012-.039.116.077.657.31 1.236.27.541.85 1.121 1.893 1.121.795 0 1.373-.398 1.627-.725z" fill="#00352F"/>
  <path d="M14.26 27.613c.873 0 1.63-.508 1.947-1.236-.254.327-.832.724-1.627.724-1.043 0-1.623-.58-1.893-1.12-.232-.58-.348-1.121-.31-1.237-.002 0-.005.004-.01.012l-.014.028a2.248 2.248 0 00-.169.655c-.021.278.027.512.046.599a.32.32 0 01.006.035l-.01-.001c.014.055.043.163.071.247h.004c.3.758 1.062 1.294 1.96 1.294z" fill="#011F1B"/>
</svg>
