<svg xmlns="http://www.w3.org/2000/svg" fill="none" viewBox="0 0 20 20">
  <path fill-rule="evenodd" clip-rule="evenodd" d="M17.168 3.12a1.334 1.334 0 00-1.332-1.304H4.628a1.33 1.33 0 00-1.308 1.33V4.97c.009.528.44.952.968.952h.032a.97.97 0 00.936-.968v-1.2h9.97v12.51H5.258V15.05a.968.968 0 00-1.935.016v1.829a1.33 1.33 0 001.33 1.308H15.86a1.33 1.33 0 001.308-1.33V3.12zm-10.82 9.41a.969.969 0 00-.968-.967H3.198a.969.969 0 00-.952.966c0 .533.434.967.968.967H5.39a.967.967 0 00.958-.967zM5.38 9.042a.97.97 0 01.968.967.969.969 0 01-.952.966H3.214a.969.969 0 01-.968-.966.97.97 0 01.952-.967H5.38zm.968-1.553a.969.969 0 00-.968-.967H3.198a.969.969 0 00-.952.967c0 .533.434.967.968.967h2.182a.969.969 0 00.952-.967z" fill="#39D2C4"/>
  <path fill-rule="evenodd" clip-rule="evenodd" d="M13.736 8.916a3.132 3.132 0 00-3.129-3.135 3.135 3.135 0 00-3.132 3.135v.054c.012.707.26 1.372.683 1.904l.014.017-.026.02-.021.015a4.228 4.228 0 00-1.514 2.069.933.933 0 00.884 1.225h.094c.4-.005.74-.266.87-.637l.01-.028a2.272 2.272 0 014.283.027l.005.014a.938.938 0 00.877.624h.101a.933.933 0 00.866-1.224l-.012-.034-.009-.025a4.227 4.227 0 00-1.515-2.027l-.027-.02.015-.018.013-.016a3.13 3.13 0 00.67-1.939zm-4.322 0c0-.663.535-1.201 1.192-1.201.658 0 1.19.537 1.19 1.201 0 .663-.534 1.201-1.191 1.201-.658 0-1.19-.537-1.19-1.201z" fill="#40B1BA"/>
</svg>
