<svg xmlns="http://www.w3.org/2000/svg" fill="none" viewBox="0 0 83 103">
  <g clip-path="url(#2JFf76u-1WKa)">
    <path fill-rule="evenodd" clip-rule="evenodd" d="M32.115 89.873h-1.039a2.602 2.602 0 01-2.596-2.59V66.555a2.602 2.602 0 012.596-2.591h1.04a2.602 2.602 0 012.596 2.591v20.726a2.601 2.601 0 01-2.597 2.591z" fill="#253368"/>
    <path fill-rule="evenodd" clip-rule="evenodd" d="M62.976 90.647a3.112 3.112 0 01-3.117 3.11H3.772a3.112 3.112 0 01-3.117-3.11 3.113 3.113 0 013.117-3.109h56.087a3.113 3.113 0 013.117 3.11z" fill="#253368"/>
    <path fill-rule="evenodd" clip-rule="evenodd" d="M22.735 95.9a1.56 1.56 0 01-1.557-1.555v-7.396c0-.855.7-1.554 1.557-1.554h17.722c.856 0 1.558.7 1.558 1.554v7.396c0 .855-.702 1.555-1.558 1.555H22.735z" fill="#ADC6FF"/>
    <path d="M23.766 86.927v7.44m15.401-7.44v7.44" stroke="#597EF7" stroke-width="3.506" stroke-linecap="round" stroke-linejoin="round"/>
    <path fill-rule="evenodd" clip-rule="evenodd" d="M2.6 75.966h58.43v-68.1H2.6v68.1z" fill="#253368"/>
    <g filter="url(#2JFf76u-1WKb)">
      <path fill-rule="evenodd" clip-rule="evenodd" d="M2.338 76.553A2.664 2.664 0 01-.32 73.901V58.219a2.664 2.664 0 012.66-2.653h58.955a2.664 2.664 0 012.66 2.653V73.9a2.664 2.664 0 01-2.66 2.652H2.338z" fill="#E4EDFC"/>
    </g>
    <g filter="url(#2JFf76u-1WKc)">
      <path fill-rule="evenodd" clip-rule="evenodd" d="M2.66 27.592A2.664 2.664 0 010 24.94V9.258a2.664 2.664 0 012.66-2.654h58.955a2.665 2.665 0 012.659 2.654v15.68a2.664 2.664 0 01-2.66 2.654H2.66z" fill="#E4EDFC"/>
    </g>
    <g filter="url(#2JFf76u-1WKd)">
      <path fill-rule="evenodd" clip-rule="evenodd" d="M7.13 19.052a1.992 1.992 0 01-1.995-1.99c0-1.099.893-1.99 1.994-1.99 1.102 0 1.995.891 1.995 1.99s-.893 1.99-1.995 1.99z" fill="#fff"/>
    </g>
    <g filter="url(#2JFf76u-1WKe)">
      <path fill-rule="evenodd" clip-rule="evenodd" d="M11.281 17.062c0-1.099.893-1.99 1.994-1.99 1.102 0 1.995.891 1.995 1.99s-.893 1.99-1.995 1.99a1.992 1.992 0 01-1.994-1.99z" fill="#fff"/>
    </g>
    <g filter="url(#2JFf76u-1WKf)">
      <path fill-rule="evenodd" clip-rule="evenodd" d="M19.422 19.052a1.992 1.992 0 01-1.995-1.99c0-1.099.893-1.99 1.995-1.99 1.101 0 1.994.891 1.994 1.99s-.893 1.99-1.994 1.99z" fill="#fff"/>
    </g>
    <g filter="url(#2JFf76u-1WKg)">
      <path fill-rule="evenodd" clip-rule="evenodd" d="M40.586 19.052a.55.55 0 01-.55-.549v-2.882a.55.55 0 01.55-.548h18.842a.55.55 0 01.55.548v2.882a.55.55 0 01-.55.549H40.586z" fill="#fff"/>
    </g>
    <g filter="url(#2JFf76u-1WKh)">
      <path fill-rule="evenodd" clip-rule="evenodd" d="M2.338 52.055A2.664 2.664 0 01-.32 49.402V33.721a2.664 2.664 0 012.66-2.653h58.955a2.665 2.665 0 012.66 2.653v15.681a2.664 2.664 0 01-2.66 2.653H2.338z" fill="#E4EDFC"/>
    </g>
    <path fill-rule="evenodd" clip-rule="evenodd" d="M7.13 44.261a1.992 1.992 0 01-1.995-1.99c0-1.098.893-1.989 1.994-1.989 1.102 0 1.995.891 1.995 1.99s-.893 1.99-1.995 1.99z" fill="#FF7946"/>
    <path fill-rule="evenodd" clip-rule="evenodd" d="M13.275 44.261a1.992 1.992 0 01-1.994-1.99c0-1.098.893-1.989 1.994-1.989 1.102 0 1.995.891 1.995 1.99s-.893 1.99-1.995 1.99zm6.147 0a1.992 1.992 0 01-1.995-1.99c0-1.098.893-1.989 1.995-1.989 1.101 0 1.994.891 1.994 1.99s-.893 1.99-1.994 1.99z" fill="#253368"/>
    <g filter="url(#2JFf76u-1WKi)">
      <path fill-rule="evenodd" clip-rule="evenodd" d="M59.313 44.261H40.701a.664.664 0 01-.665-.663v-2.653c0-.366.298-.663.665-.663h18.612c.368 0 .665.297.665.663v2.653a.664.664 0 01-.665.663z" fill="#fff"/>
    </g>
    <g filter="url(#2JFf76u-1WKj)">
      <path fill-rule="evenodd" clip-rule="evenodd" d="M5.135 66.206c0-1.099.893-1.99 1.994-1.99 1.102 0 1.995.891 1.995 1.99s-.893 1.99-1.995 1.99a1.992 1.992 0 01-1.994-1.99z" fill="#fff"/>
    </g>
    <g filter="url(#2JFf76u-1WKk)">
      <path fill-rule="evenodd" clip-rule="evenodd" d="M13.275 68.196a1.992 1.992 0 01-1.994-1.99c0-1.099.893-1.99 1.994-1.99 1.102 0 1.995.891 1.995 1.99s-.893 1.99-1.995 1.99z" fill="#fff"/>
    </g>
    <g filter="url(#2JFf76u-1WKl)">
      <path fill-rule="evenodd" clip-rule="evenodd" d="M19.422 68.196a1.992 1.992 0 01-1.995-1.99c0-1.099.893-1.99 1.995-1.99 1.101 0 1.994.891 1.994 1.99s-.893 1.99-1.994 1.99z" fill="#fff"/>
    </g>
    <g filter="url(#2JFf76u-1WKm)">
      <path fill-rule="evenodd" clip-rule="evenodd" d="M59.313 68.196H40.701a.664.664 0 01-.665-.663v-2.654c0-.366.298-.662.665-.662h18.612c.368 0 .665.296.665.662v2.653a.664.664 0 01-.665.664z" fill="#fff"/>
    </g>
  </g>
  <defs>
    <filter id="2JFf76u-1WKb" x="-3.526" y="55.566" width="70.685" height="20.987" filterUnits="userSpaceOnUse" color-interpolation-filters="sRGB">
      <feFlood flood-opacity="0" result="BackgroundImageFix"/>
      <feBlend in="SourceGraphic" in2="BackgroundImageFix" result="shape"/>
      <feColorMatrix in="SourceAlpha" values="0 0 0 0 0 0 0 0 0 0 0 0 0 0 0 0 0 0 127 0" result="hardAlpha"/>
      <feOffset dx="-3.205"/>
      <feGaussianBlur stdDeviation="2.137"/>
      <feComposite in2="hardAlpha" operator="arithmetic" k2="-1" k3="1"/>
      <feColorMatrix values="0 0 0 0 0.376471 0 0 0 0 0.517647 0 0 0 0 0.988235 0 0 0 0.25 0"/>
      <feBlend in2="shape" result="effect1_innerShadow_7116_216796"/>
      <feColorMatrix in="SourceAlpha" values="0 0 0 0 0 0 0 0 0 0 0 0 0 0 0 0 0 0 127 0" result="hardAlpha"/>
      <feOffset dx="3.205"/>
      <feGaussianBlur stdDeviation="2.137"/>
      <feComposite in2="hardAlpha" operator="arithmetic" k2="-1" k3="1"/>
      <feColorMatrix values="0 0 0 0 0.376471 0 0 0 0 0.517647 0 0 0 0 0.988235 0 0 0 0.25 0"/>
      <feBlend in2="effect1_innerShadow_7116_216796" result="effect2_innerShadow_7116_216796"/>
    </filter>
    <filter id="2JFf76u-1WKc" x="-7.479" y="2.33" width="76.027" height="33.809" filterUnits="userSpaceOnUse" color-interpolation-filters="sRGB">
      <feFlood flood-opacity="0" result="BackgroundImageFix"/>
      <feColorMatrix in="SourceAlpha" values="0 0 0 0 0 0 0 0 0 0 0 0 0 0 0 0 0 0 127 0" result="hardAlpha"/>
      <feOffset dx="-3.205"/>
      <feGaussianBlur stdDeviation="2.137"/>
      <feComposite in2="hardAlpha" operator="out"/>
      <feColorMatrix values="0 0 0 0 0.376471 0 0 0 0 0.517647 0 0 0 0 0.988235 0 0 0 0.25 0"/>
      <feBlend in2="BackgroundImageFix" result="effect1_dropShadow_7116_216796"/>
      <feColorMatrix in="SourceAlpha" values="0 0 0 0 0 0 0 0 0 0 0 0 0 0 0 0 0 0 127 0" result="hardAlpha"/>
      <feOffset dy="4.274"/>
      <feGaussianBlur stdDeviation="2.137"/>
      <feComposite in2="hardAlpha" operator="out"/>
      <feColorMatrix values="0 0 0 0 0 0 0 0 0 0 0 0 0 0 0 0 0 0 0.25 0"/>
      <feBlend in2="effect1_dropShadow_7116_216796" result="effect2_dropShadow_7116_216796"/>
      <feBlend in="SourceGraphic" in2="effect2_dropShadow_7116_216796" result="shape"/>
      <feColorMatrix in="SourceAlpha" values="0 0 0 0 0 0 0 0 0 0 0 0 0 0 0 0 0 0 127 0" result="hardAlpha"/>
      <feOffset dx="3.205"/>
      <feGaussianBlur stdDeviation="2.137"/>
      <feComposite in2="hardAlpha" operator="arithmetic" k2="-1" k3="1"/>
      <feColorMatrix values="0 0 0 0 0.376471 0 0 0 0 0.517647 0 0 0 0 0.988235 0 0 0 0.25 0"/>
      <feBlend in2="shape" result="effect3_innerShadow_7116_216796"/>
    </filter>
    <filter id="2JFf76u-1WKd" x=".862" y="9.73" width="12.536" height="12.527" filterUnits="userSpaceOnUse" color-interpolation-filters="sRGB">
      <feFlood flood-opacity="0" result="BackgroundImageFix"/>
      <feColorMatrix in="SourceAlpha" values="0 0 0 0 0 0 0 0 0 0 0 0 0 0 0 0 0 0 127 0" result="hardAlpha"/>
      <feOffset dy="-1.068"/>
      <feGaussianBlur stdDeviation="2.137"/>
      <feComposite in2="hardAlpha" operator="out"/>
      <feColorMatrix values="0 0 0 0 0.376471 0 0 0 0 0.517647 0 0 0 0 0.988235 0 0 0 0.25 0"/>
      <feBlend in2="BackgroundImageFix" result="effect1_dropShadow_7116_216796"/>
      <feBlend in="SourceGraphic" in2="effect1_dropShadow_7116_216796" result="shape"/>
    </filter>
    <filter id="2JFf76u-1WKe" x="7.007" y="9.73" width="12.537" height="12.527" filterUnits="userSpaceOnUse" color-interpolation-filters="sRGB">
      <feFlood flood-opacity="0" result="BackgroundImageFix"/>
      <feColorMatrix in="SourceAlpha" values="0 0 0 0 0 0 0 0 0 0 0 0 0 0 0 0 0 0 127 0" result="hardAlpha"/>
      <feOffset dy="-1.068"/>
      <feGaussianBlur stdDeviation="2.137"/>
      <feComposite in2="hardAlpha" operator="out"/>
      <feColorMatrix values="0 0 0 0 0.376471 0 0 0 0 0.517647 0 0 0 0 0.988235 0 0 0 0.25 0"/>
      <feBlend in2="BackgroundImageFix" result="effect1_dropShadow_7116_216796"/>
      <feBlend in="SourceGraphic" in2="effect1_dropShadow_7116_216796" result="shape"/>
    </filter>
    <filter id="2JFf76u-1WKf" x="13.154" y="9.73" width="12.536" height="12.527" filterUnits="userSpaceOnUse" color-interpolation-filters="sRGB">
      <feFlood flood-opacity="0" result="BackgroundImageFix"/>
      <feColorMatrix in="SourceAlpha" values="0 0 0 0 0 0 0 0 0 0 0 0 0 0 0 0 0 0 127 0" result="hardAlpha"/>
      <feOffset dy="-1.068"/>
      <feGaussianBlur stdDeviation="2.137"/>
      <feComposite in2="hardAlpha" operator="out"/>
      <feColorMatrix values="0 0 0 0 0.376471 0 0 0 0 0.517647 0 0 0 0 0.988235 0 0 0 0.25 0"/>
      <feBlend in2="BackgroundImageFix" result="effect1_dropShadow_7116_216796"/>
      <feBlend in="SourceGraphic" in2="effect1_dropShadow_7116_216796" result="shape"/>
    </filter>
    <filter id="2JFf76u-1WKg" x="35.763" y="9.73" width="28.489" height="12.527" filterUnits="userSpaceOnUse" color-interpolation-filters="sRGB">
      <feFlood flood-opacity="0" result="BackgroundImageFix"/>
      <feColorMatrix in="SourceAlpha" values="0 0 0 0 0 0 0 0 0 0 0 0 0 0 0 0 0 0 127 0" result="hardAlpha"/>
      <feOffset dy="-1.068"/>
      <feGaussianBlur stdDeviation="2.137"/>
      <feComposite in2="hardAlpha" operator="out"/>
      <feColorMatrix values="0 0 0 0 0.376471 0 0 0 0 0.517647 0 0 0 0 0.988235 0 0 0 0.25 0"/>
      <feBlend in2="BackgroundImageFix" result="effect1_dropShadow_7116_216796"/>
      <feBlend in="SourceGraphic" in2="effect1_dropShadow_7116_216796" result="shape"/>
    </filter>
    <filter id="2JFf76u-1WKh" x="-3.526" y="31.067" width="70.685" height="20.988" filterUnits="userSpaceOnUse" color-interpolation-filters="sRGB">
      <feFlood flood-opacity="0" result="BackgroundImageFix"/>
      <feBlend in="SourceGraphic" in2="BackgroundImageFix" result="shape"/>
      <feColorMatrix in="SourceAlpha" values="0 0 0 0 0 0 0 0 0 0 0 0 0 0 0 0 0 0 127 0" result="hardAlpha"/>
      <feOffset dx="-3.205"/>
      <feGaussianBlur stdDeviation="2.137"/>
      <feComposite in2="hardAlpha" operator="arithmetic" k2="-1" k3="1"/>
      <feColorMatrix values="0 0 0 0 0.376471 0 0 0 0 0.517647 0 0 0 0 0.988235 0 0 0 0.25 0"/>
      <feBlend in2="shape" result="effect1_innerShadow_7116_216796"/>
      <feColorMatrix in="SourceAlpha" values="0 0 0 0 0 0 0 0 0 0 0 0 0 0 0 0 0 0 127 0" result="hardAlpha"/>
      <feOffset dx="3.205"/>
      <feGaussianBlur stdDeviation="2.137"/>
      <feComposite in2="hardAlpha" operator="arithmetic" k2="-1" k3="1"/>
      <feColorMatrix values="0 0 0 0 0.376471 0 0 0 0 0.517647 0 0 0 0 0.988235 0 0 0 0.25 0"/>
      <feBlend in2="effect1_innerShadow_7116_216796" result="effect2_innerShadow_7116_216796"/>
    </filter>
    <filter id="2JFf76u-1WKi" x="35.763" y="34.94" width="28.489" height="12.527" filterUnits="userSpaceOnUse" color-interpolation-filters="sRGB">
      <feFlood flood-opacity="0" result="BackgroundImageFix"/>
      <feColorMatrix in="SourceAlpha" values="0 0 0 0 0 0 0 0 0 0 0 0 0 0 0 0 0 0 127 0" result="hardAlpha"/>
      <feOffset dy="-1.068"/>
      <feGaussianBlur stdDeviation="2.137"/>
      <feComposite in2="hardAlpha" operator="out"/>
      <feColorMatrix values="0 0 0 0 0.376471 0 0 0 0 0.517647 0 0 0 0 0.988235 0 0 0 0.25 0"/>
      <feBlend in2="BackgroundImageFix" result="effect1_dropShadow_7116_216796"/>
      <feBlend in="SourceGraphic" in2="effect1_dropShadow_7116_216796" result="shape"/>
    </filter>
    <filter id="2JFf76u-1WKj" x=".862" y="58.874" width="12.536" height="12.527" filterUnits="userSpaceOnUse" color-interpolation-filters="sRGB">
      <feFlood flood-opacity="0" result="BackgroundImageFix"/>
      <feColorMatrix in="SourceAlpha" values="0 0 0 0 0 0 0 0 0 0 0 0 0 0 0 0 0 0 127 0" result="hardAlpha"/>
      <feOffset dy="-1.068"/>
      <feGaussianBlur stdDeviation="2.137"/>
      <feComposite in2="hardAlpha" operator="out"/>
      <feColorMatrix values="0 0 0 0 0.376471 0 0 0 0 0.517647 0 0 0 0 0.988235 0 0 0 0.25 0"/>
      <feBlend in2="BackgroundImageFix" result="effect1_dropShadow_7116_216796"/>
      <feBlend in="SourceGraphic" in2="effect1_dropShadow_7116_216796" result="shape"/>
    </filter>
    <filter id="2JFf76u-1WKk" x="7.007" y="58.874" width="12.537" height="12.527" filterUnits="userSpaceOnUse" color-interpolation-filters="sRGB">
      <feFlood flood-opacity="0" result="BackgroundImageFix"/>
      <feColorMatrix in="SourceAlpha" values="0 0 0 0 0 0 0 0 0 0 0 0 0 0 0 0 0 0 127 0" result="hardAlpha"/>
      <feOffset dy="-1.068"/>
      <feGaussianBlur stdDeviation="2.137"/>
      <feComposite in2="hardAlpha" operator="out"/>
      <feColorMatrix values="0 0 0 0 0.376471 0 0 0 0 0.517647 0 0 0 0 0.988235 0 0 0 0.25 0"/>
      <feBlend in2="BackgroundImageFix" result="effect1_dropShadow_7116_216796"/>
      <feBlend in="SourceGraphic" in2="effect1_dropShadow_7116_216796" result="shape"/>
    </filter>
    <filter id="2JFf76u-1WKl" x="13.154" y="58.874" width="12.536" height="12.527" filterUnits="userSpaceOnUse" color-interpolation-filters="sRGB">
      <feFlood flood-opacity="0" result="BackgroundImageFix"/>
      <feColorMatrix in="SourceAlpha" values="0 0 0 0 0 0 0 0 0 0 0 0 0 0 0 0 0 0 127 0" result="hardAlpha"/>
      <feOffset dy="-1.068"/>
      <feGaussianBlur stdDeviation="2.137"/>
      <feComposite in2="hardAlpha" operator="out"/>
      <feColorMatrix values="0 0 0 0 0.376471 0 0 0 0 0.517647 0 0 0 0 0.988235 0 0 0 0.25 0"/>
      <feBlend in2="BackgroundImageFix" result="effect1_dropShadow_7116_216796"/>
      <feBlend in="SourceGraphic" in2="effect1_dropShadow_7116_216796" result="shape"/>
    </filter>
    <filter id="2JFf76u-1WKm" x="35.763" y="58.874" width="28.489" height="12.527" filterUnits="userSpaceOnUse" color-interpolation-filters="sRGB">
      <feFlood flood-opacity="0" result="BackgroundImageFix"/>
      <feColorMatrix in="SourceAlpha" values="0 0 0 0 0 0 0 0 0 0 0 0 0 0 0 0 0 0 127 0" result="hardAlpha"/>
      <feOffset dy="-1.068"/>
      <feGaussianBlur stdDeviation="2.137"/>
      <feComposite in2="hardAlpha" operator="out"/>
      <feColorMatrix values="0 0 0 0 0.376471 0 0 0 0 0.517647 0 0 0 0 0.988235 0 0 0 0.25 0"/>
      <feBlend in2="BackgroundImageFix" result="effect1_dropShadow_7116_216796"/>
      <feBlend in="SourceGraphic" in2="effect1_dropShadow_7116_216796" result="shape"/>
    </filter>
    <clipPath id="2JFf76u-1WKa">
      <path fill="#fff" d="M0 0h82.554v102.367H0z"/>
    </clipPath>
  </defs>
</svg>
