<svg xmlns="http://www.w3.org/2000/svg" fill="none" viewBox="0 0 15 16">
  <path d="M.5 3.057a1.8 1.8 0 011.8-1.8h10.4a1.8 1.8 0 011.8 1.8v10.4a1.8 1.8 0 01-1.8 1.8H2.3a1.8 1.8 0 01-1.8-1.8v-10.4z" fill="#fff"/>
  <path fill-rule="evenodd" clip-rule="evenodd" d="M0 3.057a2.3 2.3 0 012.3-2.3h10.4a2.3 2.3 0 012.3 2.3v10.4a2.3 2.3 0 01-2.3 2.3H2.3a2.3 2.3 0 01-2.3-2.3v-10.4zm2.3-1.3a1.3 1.3 0 00-1.3 1.3v10.4a1.3 1.3 0 001.3 1.3h10.4a1.3 1.3 0 001.3-1.3v-10.4a1.3 1.3 0 00-1.3-1.3H2.3z" fill="#0E858E"/>
  <path fill-rule="evenodd" clip-rule="evenodd" d="M13.341 3.83a.9.9 0 01.2 1.258l-5.144 7.078a.9.9 0 01-1.257.2L2.596 9.064a.9.9 0 011.058-1.456L7.47 10.38l4.614-6.35a.9.9 0 011.257-.2z" fill="#0E858E"/>
</svg>
