<svg xmlns="http://www.w3.org/2000/svg" fill="none" viewBox="0 0 20 20">
  <path fill-rule="evenodd" clip-rule="evenodd" d="M2.443 2.508h13.704a.928.928 0 01.021 1.855h-.342V9.1h.017c.34-.014.686.103.953.353l.015.015.015.014 1.456 1.47c.504.508.51 1.326.013 1.842l-.01.011-4.487 4.511a1.123 1.123 0 01-.742.33h-.015l-1.89.055a1.025 1.025 0 01-1.055-.996v-.051l.051-1.9c.002-.039.005-.077.01-.115v-.011H8.195L6.53 17.252a.928.928 0 01-1.267.296l-.013-.008a.928.928 0 01-.3-1.261l.003-.004.008-.012 1.035-1.636H4.244c-.78 0-1.413-.626-1.426-1.402V4.363h-.36a.928.928 0 01-.928-.912v-.015c0-.505.402-.916.906-.928h.007zm8.167 3.467a.791.791 0 00-.791-.791H6.31a.791.791 0 00.013 1.582h3.508a.791.791 0 00.778-.791z" fill="#fff"/>
  <path fill-rule="evenodd" clip-rule="evenodd" d="M16.147 3.172a.264.264 0 01.006.527h-.991v6.527l-.528.53V3.709H4.01v9.492c0 .128.102.231.229.235h7.726l-.525.527H7.83l-1.86 2.934a.264.264 0 01-.449-.277l.004-.005 1.68-2.652H4.243a.762.762 0 01-.762-.762V3.7H2.457a.264.264 0 01-.006-.527h13.696zM12.69 8.367a.527.527 0 01.01 1.055h-.008l-6.67.01a.527.527 0 01-.01-1.055h.01l6.668-.01zm-1.317 2.881a.527.527 0 00-.527-.527H5.993A.527.527 0 006 11.775h4.854a.527.527 0 00.518-.527zm-.427 3.211l4.488-4.505a.654.654 0 01.925-.002l1.452 1.466a.654.654 0 010 .922l-4.483 4.507a.459.459 0 01-.312.135l-1.883.054a.361.361 0 01-.372-.37l.051-1.895a.46.46 0 01.134-.312zm6.49-2.67l-1.448-1.462-.005-.005a.127.127 0 00-.175.004l-.946.949 1.652 1.62.923-.927a.127.127 0 00.003-.175l-.003-.004zm-1.293 1.48l-1.653-1.62-3.151 3.163-.046 1.692 1.68-.048 3.17-3.187z" fill="#32888F"/>
</svg>
