<svg xmlns="http://www.w3.org/2000/svg" fill="none" viewBox="0 0 20 20">
  <path d="M17.615 3.155a1.281 1.281 0 00-.233-.458 1.528 1.528 0 00-.428-.351c-.227-.126-.551-.139-.747-.139H3.871c-.49 0-.881.196-1.175.49-.293.293-.391.685-.391 1.076V16.11c0 .49.098.881.391 1.175.294.294.686.49 1.175.49h12.336c.392 0 .783-.196 1.077-.49.294-.294.392-.685.392-1.175V3.773c0-.234 0-.428-.06-.618z" fill="#40B1BA"/>
  <path d="M10.04 4.948c.782 0 1.468.686 1.468 1.469s-.686 1.566-1.469 1.566-1.468-.685-1.468-1.566.685-1.469 1.468-1.469zm1.664 9.007c.195 0 .293 0 .391.098.098.098.098.196.098.294 0 .098 0 .196-.098.294-.098.098-.196.098-.391.098h-3.33c-.195 0-.293 0-.39-.098-.099-.098-.099-.196-.099-.294 0-.098 0-.196.098-.294.098-.098.196-.098.392-.098h.783v-4.21h-.783c-.196 0-.294 0-.392-.097 0-.098-.098-.196-.098-.294 0-.098 0-.196.098-.294.098-.098.196-.196.392-.196h3.23c.197 0 .294 0 .392.098.098.098.098.196.098.294 0 .098 0 .196-.098.294 0 .195-.098.195-.293.195h-.882v4.21h.882z" fill="#39D2C4"/>
</svg>
