<svg xmlns="http://www.w3.org/2000/svg" fill="none" viewBox="0 0 20 20">
  <circle cx="10" cy="10" r="1.5" fill="#40B1BA"/>
  <path fill-rule="evenodd" clip-rule="evenodd" d="M8.5 2.5h3v1.174a6.475 6.475 0 012.501 1.203L15 3.88 17.121 6l-1.236 1.236c.188.4.337.824.441 1.264H17.5v3h-1.174a6.5 6.5 0 01-.441 1.264L17.12 14 15 16.121l-.999-.998a6.475 6.475 0 01-2.501 1.203V17.5h-3v-1.174a6.475 6.475 0 01-2.501-1.203L5 16.12 2.879 14l1.236-1.236a6.451 6.451 0 01-.441-1.264H2.5v-3h1.174a6.5 6.5 0 01.441-1.264L2.88 6 5 3.879l.999.998A6.475 6.475 0 018.5 3.674V2.5zm1.5 12a4.5 4.5 0 100-9 4.5 4.5 0 000 9z" fill="#39D2C4"/>
</svg>
