<svg xmlns="http://www.w3.org/2000/svg" fill="none" viewBox="0 0 20 20">
  <path fill-rule="evenodd" clip-rule="evenodd" d="M13.275 4.44v.001l-.008.022-.003.024v.005l-.002.011c0 .01-.002.022-.004.038a1.519 1.519 0 00-.005.124c0 .091.007.235.06.362.054.133.15.23.216.288a1.079 1.079 0 00.122.092l.01.006.003.002.002.001.017.01.018.008h.003l.008.004.026.01a2.547 2.547 0 00.198.064c.034.008.086.02.139.02.461 0 .768.119.962.315.194.198.315.514.315.996 0 .292-.02.777-.152 1.26-.133.487-.37.941-.781 1.215l-.012.008c-.21.157-.381.426-.381.72v.882c0 .39.279.791.741.849h.007a4.102 4.102 0 011.504.462c.195.104.349.208.453.294.053.043.09.079.11.103.034.458.404.824.851.824a.896.896 0 00.619-.273.85.85 0 00.234-.617c0-.64-.43-1.176-.983-1.575-.457-.33-1.032-.591-1.623-.766.468-.518.74-1.14.9-1.718.188-.69.219-1.335.219-1.708 0-.909-.266-1.677-.782-2.22-.518-.544-1.262-.833-2.161-.833a.896.896 0 00-.619.273.634.634 0 00-.1.14 1.414 1.414 0 00-.105.232 3.4 3.4 0 00-.011.032l-.004.01v.003z" fill="#40B1BA"/>
  <path fill-rule="evenodd" clip-rule="evenodd" d="M12.987 6.737a5.18 5.18 0 00-.23-1.566.228.228 0 00-.002-.048.728.728 0 00-.03-.13 3.574 3.574 0 00-.11-.286 3.659 3.659 0 00-.124-.269.643.643 0 00-.07-.11.293.293 0 00-.041-.04c-.669-1.005-1.827-1.525-3.3-1.525h-.121c-1.51 0-2.67.519-3.34 1.524a.298.298 0 00-.034.032.636.636 0 00-.078.109c-.042.07-.094.171-.14.27a3.739 3.739 0 00-.123.284.772.772 0 00-.038.127.332.332 0 00-.005.05v.003c-.156.458-.23.984-.23 1.575 0 2.072.489 3.646 1.515 4.663-.857.23-1.705.715-2.374 1.3-.792.69-1.392 1.574-1.392 2.405 0 .516.133.935.427 1.258.289.316.705.51 1.212.633.995.243 2.467.242 4.363.242h.311c1.979 0 3.52 0 4.555-.242.525-.123.955-.316 1.248-.633.298-.325.423-.747.402-1.263-.002-.83-.603-1.702-1.387-2.385-.668-.583-1.512-1.068-2.357-1.31.7-.708 1.069-1.6 1.265-2.418.228-.95.228-1.824.228-2.247v-.003zm-6.27-.08c0-.76.2-1.284.55-1.622.355-.34.905-.531 1.692-.531h.12c.785 0 1.335.2 1.69.549.353.348.553.885.553 1.644 0 2.013-.477 3.14-1.37 3.712a.888.888 0 00-.44.773v.96a.94.94 0 00.826.93h.006a3.83 3.83 0 012.364 1.077c.255.247.441.495.563.691a2.138 2.138 0 01.155.307.14.14 0 01-.016.016.63.63 0 01-.202.104c-.213.076-.531.13-.925.167-.783.073-1.789.069-2.682.065l-.562-.002-.657.003c-.893.005-1.893.012-2.67-.06-.391-.037-.706-.092-.917-.168a.615.615 0 01-.199-.104.11.11 0 01-.017-.02.604.604 0 01.028-.074c.028-.063.073-.148.137-.248a4.116 4.116 0 012.995-1.794h.001a.939.939 0 00.826-.93v-.96a.939.939 0 00-.442-.775c-.93-.57-1.407-1.735-1.407-3.71z" fill="#39D2C4"/>
</svg>
