<svg xmlns="http://www.w3.org/2000/svg" fill="none" viewBox="0 0 20 20">
  <path d="M10.817 2.278a1.108 1.108 0 010 2.216H4.501v11.044h11.041V10.81a1.108 1.108 0 112.216 0v4.99a1.953 1.953 0 01-1.953 1.953H4.238A1.953 1.953 0 012.285 15.8V4.23c0-1.079.875-1.953 1.953-1.953h6.579z" fill="#39D2C4"/>
  <path fill-rule="evenodd" clip-rule="evenodd" d="M11.391 7.61a1.108 1.108 0 001.567 1.566l4.709-4.71A1.108 1.108 0 0016.1 2.9l-4.709 4.71zm-3.229-.58a1.11 1.11 0 110 2.219H7.105a1.11 1.11 0 110-2.219h1.057zm4.772 3.719a1.11 1.11 0 010 2.219H7.105a1.11 1.11 0 010-2.219h5.829z" fill="#40B1BA"/>
</svg>
