<svg xmlns="http://www.w3.org/2000/svg" fill="none" viewBox="0 0 20 20">
  <circle cx="10.5" cy="13.5" r="1" stroke="#39D2C4"/>
  <circle cx="10.5" cy="6.5" r="1" stroke="#39D2C4"/>
  <path fill-rule="evenodd" clip-rule="evenodd" d="M5 4.297V4h11v.297a8.143 8.143 0 01-1.247 2.255c-.572.722-1.244 1.285-1.973 1.666a4.906 4.906 0 01-2.28.573 4.906 4.906 0 01-2.28-.573c-.729-.38-1.4-.944-1.973-1.666A8.143 8.143 0 015 4.297zM5 8.33a8.135 8.135 0 002.352 1.88A6.777 6.777 0 0010.5 11c1.085 0 2.155-.27 3.148-.788A8.134 8.134 0 0016 8.332V16H5V8.331zm13-3.583V3a1 1 0 00-1-1H4a1 1 0 00-1 1v14a1 1 0 001 1h13a1 1 0 001-1V4.748z" fill="#40B1BA"/>
</svg>
